<?xml version="1.0" encoding="UTF-8"?>
<svg xmlns="http://www.w3.org/2000/svg" width="1152" height="1152" viewBox="0 0 1152 1152" role="img" aria-label="雨幕庄园（9×9） board map">
<defs>
<style>
  .cell-base { shape-rendering: crispEdges; }
  .cell-grid { fill: none; stroke: rgba(15, 18, 22, 0.44); stroke-width: 2; shape-rendering: crispEdges; }
  .region-boundary { fill: none; stroke: #0b0d0f; stroke-width: 7; stroke-linecap: square; shape-rendering: crispEdges; }
  .outer-border { stroke: #050505; stroke-width: 4; shape-rendering: crispEdges; }
  .tile-symbol { font-family: "Segoe UI", "Microsoft YaHei", Arial, sans-serif; font-size: 17px; font-weight: 900; fill: rgba(7, 8, 9, 0.78); }
  .cell-region { font-family: "Segoe UI", "Microsoft YaHei", Arial, sans-serif; font-size: 14px; font-weight: 900; fill: rgba(7, 8, 9, 0.7); }
  .cell-element { font-family: "Segoe UI", "Microsoft YaHei", Arial, sans-serif; font-size: 12px; font-weight: 760; fill: rgba(7, 8, 9, 0.58); }
  .dark .tile-symbol, .dark .cell-region, .dark .cell-element { fill: rgba(245, 247, 249, 0.86); }
</style>
<pattern id="grass-hatch" width="20" height="20" patternUnits="userSpaceOnUse" patternTransform="rotate(35)">
  <rect width="20" height="20" fill="transparent"/>
  <rect width="10" height="20" fill="rgba(255,255,255,0.1)"/>
</pattern>
<pattern id="carpet-hatch" width="20" height="20" patternUnits="userSpaceOnUse" patternTransform="rotate(45)">
  <rect width="20" height="20" fill="transparent"/>
  <path d="M 0 0 L 20 0" stroke="rgba(255,255,255,0.22)" stroke-width="4"/>
</pattern>
<pattern id="blocker-dots" width="20" height="20" patternUnits="userSpaceOnUse">
  <rect width="20" height="20" fill="transparent"/>
  <circle cx="10" cy="10" r="3" fill="rgba(255,255,255,0.12)"/>
</pattern>
</defs>
<rect width="1152" height="1152" fill="#f4f5f7"/>
<g id="cell-r1c1" class="cell dark" data-row="1" data-col="1" data-region="橡木书房" data-tile="bookshelf">
  <rect class="cell-base" x="0" y="0" width="128" height="128" fill="#252b29"/>
  <rect x="0" y="0" width="128" height="128" fill="#3b3430" opacity="0.28"/>
  <rect x="0" y="0" width="128" height="128" fill="url(#blocker-dots)"/>
  <rect class="cell-grid" x="0" y="0" width="128" height="128"/>
  <text class="tile-symbol" x="12" y="25">X</text>
  <text class="cell-region" x="12" y="91">橡木书房</text>
  <text class="cell-element" x="12" y="111">贴北墙的高书柜</text>
</g>
<g id="cell-r1c2" class="cell" data-row="1" data-col="2" data-region="橡木书房" data-tile="floor">
  <rect class="cell-base" x="128" y="0" width="128" height="128" fill="#cfe1e2"/>
  <rect x="128" y="0" width="128" height="128" fill="#e8f1f1" opacity="0.28"/>
  <rect class="cell-grid" x="128" y="0" width="128" height="128"/>
  <text class="tile-symbol" x="140" y="25">F</text>
  <text class="cell-region" x="140" y="91">橡木书房</text>
  <text class="cell-element" x="140" y="111">深色胡桃木地板</text>
</g>
<g id="cell-r1c3" class="cell" data-row="1" data-col="3" data-region="橡木书房" data-tile="floor">
  <rect class="cell-base" x="256" y="0" width="128" height="128" fill="#cfe1e2"/>
  <rect x="256" y="0" width="128" height="128" fill="#e8f1f1" opacity="0.28"/>
  <rect class="cell-grid" x="256" y="0" width="128" height="128"/>
  <text class="tile-symbol" x="268" y="25">F</text>
  <text class="cell-region" x="268" y="91">橡木书房</text>
  <text class="cell-element" x="268" y="111">深色胡桃木地板</text>
</g>
<g id="cell-r1c4" class="cell" data-row="1" data-col="4" data-region="雨衣门厅" data-tile="floor">
  <rect class="cell-base" x="384" y="0" width="128" height="128" fill="#cfe1e2"/>
  <rect x="384" y="0" width="128" height="128" fill="#e8f1f1" opacity="0.28"/>
  <rect class="cell-grid" x="384" y="0" width="128" height="128"/>
  <text class="tile-symbol" x="396" y="25">F</text>
  <text class="cell-region" x="396" y="91">雨衣门厅</text>
  <text class="cell-element" x="396" y="111">鼠尾草花砖</text>
</g>
<g id="cell-r1c5" class="cell" data-row="1" data-col="5" data-region="雨衣门厅" data-tile="floor">
  <rect class="cell-base" x="512" y="0" width="128" height="128" fill="#cfe1e2"/>
  <rect x="512" y="0" width="128" height="128" fill="#e8f1f1" opacity="0.28"/>
  <rect class="cell-grid" x="512" y="0" width="128" height="128"/>
  <text class="tile-symbol" x="524" y="25">F</text>
  <text class="cell-region" x="524" y="91">雨衣门厅</text>
  <text class="cell-element" x="524" y="111">鼠尾草花砖</text>
</g>
<g id="cell-r1c6" class="cell" data-row="1" data-col="6" data-region="雨衣门厅" data-tile="floor">
  <rect class="cell-base" x="640" y="0" width="128" height="128" fill="#cfe1e2"/>
  <rect x="640" y="0" width="128" height="128" fill="#e8f1f1" opacity="0.28"/>
  <rect class="cell-grid" x="640" y="0" width="128" height="128"/>
  <text class="tile-symbol" x="652" y="25">F</text>
  <text class="cell-region" x="652" y="91">雨衣门厅</text>
  <text class="cell-element" x="652" y="111">鼠尾草花砖</text>
</g>
<g id="cell-r1c7" class="cell" data-row="1" data-col="7" data-region="蓝呢起居室" data-tile="floor">
  <rect class="cell-base" x="768" y="0" width="128" height="128" fill="#cfe1e2"/>
  <rect x="768" y="0" width="128" height="128" fill="#e8f1f1" opacity="0.28"/>
  <rect class="cell-grid" x="768" y="0" width="128" height="128"/>
  <text class="tile-symbol" x="780" y="25">F</text>
  <text class="cell-region" x="780" y="91">蓝呢起居室</text>
  <text class="cell-element" x="780" y="111">旧蓝绿织毯</text>
</g>
<g id="cell-r1c8" class="cell" data-row="1" data-col="8" data-region="蓝呢起居室" data-tile="chair">
  <rect class="cell-base" x="896" y="0" width="128" height="128" fill="#d8dce2"/>
  <rect x="896" y="0" width="128" height="128" fill="#eef1f4" opacity="0.28"/>
  <rect class="cell-grid" x="896" y="0" width="128" height="128"/>
  <text class="tile-symbol" x="908" y="25">C</text>
  <text class="cell-region" x="908" y="91">蓝呢起居室</text>
  <text class="cell-element" x="908" y="111">壁炉旁单椅</text>
</g>
<g id="cell-r1c9" class="cell" data-row="1" data-col="9" data-region="蓝呢起居室" data-tile="floor">
  <rect class="cell-base" x="1024" y="0" width="128" height="128" fill="#cfe1e2"/>
  <rect x="1024" y="0" width="128" height="128" fill="#e8f1f1" opacity="0.28"/>
  <rect class="cell-grid" x="1024" y="0" width="128" height="128"/>
  <text class="tile-symbol" x="1036" y="25">F</text>
  <text class="cell-region" x="1036" y="91">蓝呢起居室</text>
  <text class="cell-element" x="1036" y="111">旧蓝绿织毯</text>
</g>
<g id="cell-r2c1" class="cell dark" data-row="2" data-col="1" data-region="橡木书房" data-tile="bookshelf">
  <rect class="cell-base" x="0" y="128" width="128" height="128" fill="#252b29"/>
  <rect x="0" y="128" width="128" height="128" fill="#3b3430" opacity="0.28"/>
  <rect x="0" y="128" width="128" height="128" fill="url(#blocker-dots)"/>
  <rect class="cell-grid" x="0" y="128" width="128" height="128"/>
  <text class="tile-symbol" x="12" y="153">X</text>
  <text class="cell-region" x="12" y="219">橡木书房</text>
  <text class="cell-element" x="12" y="239">贴西墙的档案书柜</text>
</g>
<g id="cell-r2c2" class="cell dark" data-row="2" data-col="2" data-region="橡木书房" data-tile="table">
  <rect class="cell-base" x="128" y="128" width="128" height="128" fill="#2f2924"/>
  <rect x="128" y="128" width="128" height="128" fill="#51453a" opacity="0.28"/>
  <rect x="128" y="128" width="128" height="128" fill="url(#blocker-dots)"/>
  <rect class="cell-grid" x="128" y="128" width="128" height="128"/>
  <text class="tile-symbol" x="140" y="153">X</text>
  <text class="cell-region" x="140" y="219">橡木书房</text>
  <text class="cell-element" x="140" y="239">面向房门的书桌</text>
</g>
<g id="cell-r2c3" class="cell" data-row="2" data-col="3" data-region="橡木书房" data-tile="floor">
  <rect class="cell-base" x="256" y="128" width="128" height="128" fill="#cfe1e2"/>
  <rect x="256" y="128" width="128" height="128" fill="#e8f1f1" opacity="0.28"/>
  <rect class="cell-grid" x="256" y="128" width="128" height="128"/>
  <text class="tile-symbol" x="268" y="153">F</text>
  <text class="cell-region" x="268" y="219">橡木书房</text>
  <text class="cell-element" x="268" y="239">深色胡桃木地板</text>
</g>
<g id="cell-r2c4" class="cell" data-row="2" data-col="4" data-region="雨衣门厅" data-tile="floor">
  <rect class="cell-base" x="384" y="128" width="128" height="128" fill="#cfe1e2"/>
  <rect x="384" y="128" width="128" height="128" fill="#e8f1f1" opacity="0.28"/>
  <rect class="cell-grid" x="384" y="128" width="128" height="128"/>
  <text class="tile-symbol" x="396" y="153">F</text>
  <text class="cell-region" x="396" y="219">雨衣门厅</text>
  <text class="cell-element" x="396" y="239">鼠尾草花砖</text>
</g>
<g id="cell-r2c5" class="cell" data-row="2" data-col="5" data-region="雨衣门厅" data-tile="floor">
  <rect class="cell-base" x="512" y="128" width="128" height="128" fill="#cfe1e2"/>
  <rect x="512" y="128" width="128" height="128" fill="#e8f1f1" opacity="0.28"/>
  <rect class="cell-grid" x="512" y="128" width="128" height="128"/>
  <text class="tile-symbol" x="524" y="153">F</text>
  <text class="cell-region" x="524" y="219">雨衣门厅</text>
  <text class="cell-element" x="524" y="239">鼠尾草花砖</text>
</g>
<g id="cell-r2c6" class="cell" data-row="2" data-col="6" data-region="雨衣门厅" data-tile="floor">
  <rect class="cell-base" x="640" y="128" width="128" height="128" fill="#cfe1e2"/>
  <rect x="640" y="128" width="128" height="128" fill="#e8f1f1" opacity="0.28"/>
  <rect class="cell-grid" x="640" y="128" width="128" height="128"/>
  <text class="tile-symbol" x="652" y="153">F</text>
  <text class="cell-region" x="652" y="219">雨衣门厅</text>
  <text class="cell-element" x="652" y="239">鼠尾草花砖</text>
</g>
<g id="cell-r2c7" class="cell" data-row="2" data-col="7" data-region="蓝呢起居室" data-tile="floor">
  <rect class="cell-base" x="768" y="128" width="128" height="128" fill="#cfe1e2"/>
  <rect x="768" y="128" width="128" height="128" fill="#e8f1f1" opacity="0.28"/>
  <rect class="cell-grid" x="768" y="128" width="128" height="128"/>
  <text class="tile-symbol" x="780" y="153">F</text>
  <text class="cell-region" x="780" y="219">蓝呢起居室</text>
  <text class="cell-element" x="780" y="239">旧蓝绿织毯</text>
</g>
<g id="cell-r2c8" class="cell dark" data-row="2" data-col="8" data-region="蓝呢起居室" data-tile="table">
  <rect class="cell-base" x="896" y="128" width="128" height="128" fill="#2f2924"/>
  <rect x="896" y="128" width="128" height="128" fill="#51453a" opacity="0.28"/>
  <rect x="896" y="128" width="128" height="128" fill="url(#blocker-dots)"/>
  <rect class="cell-grid" x="896" y="128" width="128" height="128"/>
  <text class="tile-symbol" x="908" y="153">X</text>
  <text class="cell-region" x="908" y="219">蓝呢起居室</text>
  <text class="cell-element" x="908" y="239">起居室茶几</text>
</g>
<g id="cell-r2c9" class="cell" data-row="2" data-col="9" data-region="蓝呢起居室" data-tile="floor">
  <rect class="cell-base" x="1024" y="128" width="128" height="128" fill="#cfe1e2"/>
  <rect x="1024" y="128" width="128" height="128" fill="#e8f1f1" opacity="0.28"/>
  <rect class="cell-grid" x="1024" y="128" width="128" height="128"/>
  <text class="tile-symbol" x="1036" y="153">F</text>
  <text class="cell-region" x="1036" y="219">蓝呢起居室</text>
  <text class="cell-element" x="1036" y="239">旧蓝绿织毯</text>
</g>
<g id="cell-r3c1" class="cell" data-row="3" data-col="1" data-region="橡木书房" data-tile="floor">
  <rect class="cell-base" x="0" y="256" width="128" height="128" fill="#cfe1e2"/>
  <rect x="0" y="256" width="128" height="128" fill="#e8f1f1" opacity="0.28"/>
  <rect class="cell-grid" x="0" y="256" width="128" height="128"/>
  <text class="tile-symbol" x="12" y="281">F</text>
  <text class="cell-region" x="12" y="347">橡木书房</text>
  <text class="cell-element" x="12" y="367">深色胡桃木地板</text>
</g>
<g id="cell-r3c2" class="cell" data-row="3" data-col="2" data-region="橡木书房" data-tile="floor">
  <rect class="cell-base" x="128" y="256" width="128" height="128" fill="#cfe1e2"/>
  <rect x="128" y="256" width="128" height="128" fill="#e8f1f1" opacity="0.28"/>
  <rect class="cell-grid" x="128" y="256" width="128" height="128"/>
  <text class="tile-symbol" x="140" y="281">F</text>
  <text class="cell-region" x="140" y="347">橡木书房</text>
  <text class="cell-element" x="140" y="367">深色胡桃木地板</text>
</g>
<g id="cell-r3c3" class="cell" data-row="3" data-col="3" data-region="橡木书房" data-tile="floor">
  <rect class="cell-base" x="256" y="256" width="128" height="128" fill="#cfe1e2"/>
  <rect x="256" y="256" width="128" height="128" fill="#e8f1f1" opacity="0.28"/>
  <rect class="cell-grid" x="256" y="256" width="128" height="128"/>
  <text class="tile-symbol" x="268" y="281">F</text>
  <text class="cell-region" x="268" y="347">橡木书房</text>
  <text class="cell-element" x="268" y="367">深色胡桃木地板</text>
</g>
<g id="cell-r3c4" class="cell" data-row="3" data-col="4" data-region="雨衣门厅" data-tile="floor">
  <rect class="cell-base" x="384" y="256" width="128" height="128" fill="#cfe1e2"/>
  <rect x="384" y="256" width="128" height="128" fill="#e8f1f1" opacity="0.28"/>
  <rect class="cell-grid" x="384" y="256" width="128" height="128"/>
  <text class="tile-symbol" x="396" y="281">F</text>
  <text class="cell-region" x="396" y="347">雨衣门厅</text>
  <text class="cell-element" x="396" y="367">鼠尾草花砖</text>
</g>
<g id="cell-r3c5" class="cell" data-row="3" data-col="5" data-region="雨衣门厅" data-tile="floor">
  <rect class="cell-base" x="512" y="256" width="128" height="128" fill="#cfe1e2"/>
  <rect x="512" y="256" width="128" height="128" fill="#e8f1f1" opacity="0.28"/>
  <rect class="cell-grid" x="512" y="256" width="128" height="128"/>
  <text class="tile-symbol" x="524" y="281">F</text>
  <text class="cell-region" x="524" y="347">雨衣门厅</text>
  <text class="cell-element" x="524" y="367">鼠尾草花砖</text>
</g>
<g id="cell-r3c6" class="cell" data-row="3" data-col="6" data-region="雨衣门厅" data-tile="floor">
  <rect class="cell-base" x="640" y="256" width="128" height="128" fill="#cfe1e2"/>
  <rect x="640" y="256" width="128" height="128" fill="#e8f1f1" opacity="0.28"/>
  <rect class="cell-grid" x="640" y="256" width="128" height="128"/>
  <text class="tile-symbol" x="652" y="281">F</text>
  <text class="cell-region" x="652" y="347">雨衣门厅</text>
  <text class="cell-element" x="652" y="367">鼠尾草花砖</text>
</g>
<g id="cell-r3c7" class="cell" data-row="3" data-col="7" data-region="蓝呢起居室" data-tile="chair">
  <rect class="cell-base" x="768" y="256" width="128" height="128" fill="#d8dce2"/>
  <rect x="768" y="256" width="128" height="128" fill="#eef1f4" opacity="0.28"/>
  <rect class="cell-grid" x="768" y="256" width="128" height="128"/>
  <text class="tile-symbol" x="780" y="281">C</text>
  <text class="cell-region" x="780" y="347">蓝呢起居室</text>
  <text class="cell-element" x="780" y="367">靠近茶几的扶手椅</text>
</g>
<g id="cell-r3c8" class="cell" data-row="3" data-col="8" data-region="蓝呢起居室" data-tile="floor">
  <rect class="cell-base" x="896" y="256" width="128" height="128" fill="#cfe1e2"/>
  <rect x="896" y="256" width="128" height="128" fill="#e8f1f1" opacity="0.28"/>
  <rect class="cell-grid" x="896" y="256" width="128" height="128"/>
  <text class="tile-symbol" x="908" y="281">F</text>
  <text class="cell-region" x="908" y="347">蓝呢起居室</text>
  <text class="cell-element" x="908" y="367">旧蓝绿织毯</text>
</g>
<g id="cell-r3c9" class="cell" data-row="3" data-col="9" data-region="蓝呢起居室" data-tile="chair">
  <rect class="cell-base" x="1024" y="256" width="128" height="128" fill="#d8dce2"/>
  <rect x="1024" y="256" width="128" height="128" fill="#eef1f4" opacity="0.28"/>
  <rect class="cell-grid" x="1024" y="256" width="128" height="128"/>
  <text class="tile-symbol" x="1036" y="281">C</text>
  <text class="cell-region" x="1036" y="347">蓝呢起居室</text>
  <text class="cell-element" x="1036" y="367">靠窗扶手椅</text>
</g>
<g id="cell-r4c1" class="cell" data-row="4" data-col="1" data-region="橡木书房" data-tile="floor">
  <rect class="cell-base" x="0" y="384" width="128" height="128" fill="#cfe1e2"/>
  <rect x="0" y="384" width="128" height="128" fill="#e8f1f1" opacity="0.28"/>
  <rect class="cell-grid" x="0" y="384" width="128" height="128"/>
  <text class="tile-symbol" x="12" y="409">F</text>
  <text class="cell-region" x="12" y="475">橡木书房</text>
  <text class="cell-element" x="12" y="495">深色胡桃木地板</text>
</g>
<g id="cell-r4c2" class="cell" data-row="4" data-col="2" data-region="橡木书房" data-tile="floor">
  <rect class="cell-base" x="128" y="384" width="128" height="128" fill="#cfe1e2"/>
  <rect x="128" y="384" width="128" height="128" fill="#e8f1f1" opacity="0.28"/>
  <rect class="cell-grid" x="128" y="384" width="128" height="128"/>
  <text class="tile-symbol" x="140" y="409">F</text>
  <text class="cell-region" x="140" y="475">橡木书房</text>
  <text class="cell-element" x="140" y="495">深色胡桃木地板</text>
</g>
<g id="cell-r4c3" class="cell" data-row="4" data-col="3" data-region="橡木书房" data-tile="floor">
  <rect class="cell-base" x="256" y="384" width="128" height="128" fill="#cfe1e2"/>
  <rect x="256" y="384" width="128" height="128" fill="#e8f1f1" opacity="0.28"/>
  <rect class="cell-grid" x="256" y="384" width="128" height="128"/>
  <text class="tile-symbol" x="268" y="409">F</text>
  <text class="cell-region" x="268" y="475">橡木书房</text>
  <text class="cell-element" x="268" y="495">深色胡桃木地板</text>
</g>
<g id="cell-r4c4" class="cell" data-row="4" data-col="4" data-region="中央走廊" data-tile="floor">
  <rect class="cell-base" x="384" y="384" width="128" height="128" fill="#cfe1e2"/>
  <rect x="384" y="384" width="128" height="128" fill="#e8f1f1" opacity="0.28"/>
  <rect class="cell-grid" x="384" y="384" width="128" height="128"/>
  <text class="tile-symbol" x="396" y="409">F</text>
  <text class="cell-region" x="396" y="475">中央走廊</text>
  <text class="cell-element" x="396" y="495">暖色拼花橡木地板</text>
</g>
<g id="cell-r4c5" class="cell" data-row="4" data-col="5" data-region="中央走廊" data-tile="carpet">
  <rect class="cell-base" x="512" y="384" width="128" height="128" fill="#8f8a5d"/>
  <rect x="512" y="384" width="128" height="128" fill="#aaa36d" opacity="0.28"/>
  <rect x="512" y="384" width="128" height="128" fill="url(#carpet-hatch)"/>
  <rect class="cell-grid" x="512" y="384" width="128" height="128"/>
  <text class="tile-symbol" x="524" y="409">K</text>
  <text class="cell-region" x="524" y="475">中央走廊</text>
  <text class="cell-element" x="524" y="495">门厅到走廊的长毯</text>
</g>
<g id="cell-r4c6" class="cell" data-row="4" data-col="6" data-region="中央走廊" data-tile="floor">
  <rect class="cell-base" x="640" y="384" width="128" height="128" fill="#cfe1e2"/>
  <rect x="640" y="384" width="128" height="128" fill="#e8f1f1" opacity="0.28"/>
  <rect class="cell-grid" x="640" y="384" width="128" height="128"/>
  <text class="tile-symbol" x="652" y="409">F</text>
  <text class="cell-region" x="652" y="475">中央走廊</text>
  <text class="cell-element" x="652" y="495">暖色拼花橡木地板</text>
</g>
<g id="cell-r4c7" class="cell" data-row="4" data-col="7" data-region="蓝呢起居室" data-tile="floor">
  <rect class="cell-base" x="768" y="384" width="128" height="128" fill="#cfe1e2"/>
  <rect x="768" y="384" width="128" height="128" fill="#e8f1f1" opacity="0.28"/>
  <rect class="cell-grid" x="768" y="384" width="128" height="128"/>
  <text class="tile-symbol" x="780" y="409">F</text>
  <text class="cell-region" x="780" y="475">蓝呢起居室</text>
  <text class="cell-element" x="780" y="495">旧蓝绿织毯</text>
</g>
<g id="cell-r4c8" class="cell" data-row="4" data-col="8" data-region="蓝呢起居室" data-tile="floor">
  <rect class="cell-base" x="896" y="384" width="128" height="128" fill="#cfe1e2"/>
  <rect x="896" y="384" width="128" height="128" fill="#e8f1f1" opacity="0.28"/>
  <rect class="cell-grid" x="896" y="384" width="128" height="128"/>
  <text class="tile-symbol" x="908" y="409">F</text>
  <text class="cell-region" x="908" y="475">蓝呢起居室</text>
  <text class="cell-element" x="908" y="495">旧蓝绿织毯</text>
</g>
<g id="cell-r4c9" class="cell" data-row="4" data-col="9" data-region="蓝呢起居室" data-tile="floor">
  <rect class="cell-base" x="1024" y="384" width="128" height="128" fill="#cfe1e2"/>
  <rect x="1024" y="384" width="128" height="128" fill="#e8f1f1" opacity="0.28"/>
  <rect class="cell-grid" x="1024" y="384" width="128" height="128"/>
  <text class="tile-symbol" x="1036" y="409">F</text>
  <text class="cell-region" x="1036" y="475">蓝呢起居室</text>
  <text class="cell-element" x="1036" y="495">旧蓝绿织毯</text>
</g>
<g id="cell-r5c1" class="cell" data-row="5" data-col="1" data-region="橡木书房" data-tile="floor">
  <rect class="cell-base" x="0" y="512" width="128" height="128" fill="#cfe1e2"/>
  <rect x="0" y="512" width="128" height="128" fill="#e8f1f1" opacity="0.28"/>
  <rect class="cell-grid" x="0" y="512" width="128" height="128"/>
  <text class="tile-symbol" x="12" y="537">F</text>
  <text class="cell-region" x="12" y="603">橡木书房</text>
  <text class="cell-element" x="12" y="623">深色胡桃木地板</text>
</g>
<g id="cell-r5c2" class="cell" data-row="5" data-col="2" data-region="橡木书房" data-tile="floor">
  <rect class="cell-base" x="128" y="512" width="128" height="128" fill="#cfe1e2"/>
  <rect x="128" y="512" width="128" height="128" fill="#e8f1f1" opacity="0.28"/>
  <rect class="cell-grid" x="128" y="512" width="128" height="128"/>
  <text class="tile-symbol" x="140" y="537">F</text>
  <text class="cell-region" x="140" y="603">橡木书房</text>
  <text class="cell-element" x="140" y="623">深色胡桃木地板</text>
</g>
<g id="cell-r5c3" class="cell" data-row="5" data-col="3" data-region="橡木书房" data-tile="floor">
  <rect class="cell-base" x="256" y="512" width="128" height="128" fill="#cfe1e2"/>
  <rect x="256" y="512" width="128" height="128" fill="#e8f1f1" opacity="0.28"/>
  <rect class="cell-grid" x="256" y="512" width="128" height="128"/>
  <text class="tile-symbol" x="268" y="537">F</text>
  <text class="cell-region" x="268" y="603">橡木书房</text>
  <text class="cell-element" x="268" y="623">深色胡桃木地板</text>
</g>
<g id="cell-r5c4" class="cell" data-row="5" data-col="4" data-region="中央走廊" data-tile="floor">
  <rect class="cell-base" x="384" y="512" width="128" height="128" fill="#cfe1e2"/>
  <rect x="384" y="512" width="128" height="128" fill="#e8f1f1" opacity="0.28"/>
  <rect class="cell-grid" x="384" y="512" width="128" height="128"/>
  <text class="tile-symbol" x="396" y="537">F</text>
  <text class="cell-region" x="396" y="603">中央走廊</text>
  <text class="cell-element" x="396" y="623">暖色拼花橡木地板</text>
</g>
<g id="cell-r5c5" class="cell" data-row="5" data-col="5" data-region="中央走廊" data-tile="carpet">
  <rect class="cell-base" x="512" y="512" width="128" height="128" fill="#8f8a5d"/>
  <rect x="512" y="512" width="128" height="128" fill="#aaa36d" opacity="0.28"/>
  <rect x="512" y="512" width="128" height="128" fill="url(#carpet-hatch)"/>
  <rect class="cell-grid" x="512" y="512" width="128" height="128"/>
  <text class="tile-symbol" x="524" y="537">K</text>
  <text class="cell-region" x="524" y="603">中央走廊</text>
  <text class="cell-element" x="524" y="623">走廊中央长毯</text>
</g>
<g id="cell-r5c6" class="cell dark" data-row="5" data-col="6" data-region="中央走廊" data-tile="table">
  <rect class="cell-base" x="640" y="512" width="128" height="128" fill="#2f2924"/>
  <rect x="640" y="512" width="128" height="128" fill="#51453a" opacity="0.28"/>
  <rect x="640" y="512" width="128" height="128" fill="url(#blocker-dots)"/>
  <rect class="cell-grid" x="640" y="512" width="128" height="128"/>
  <text class="tile-symbol" x="652" y="537">X</text>
  <text class="cell-region" x="652" y="603">中央走廊</text>
  <text class="cell-element" x="652" y="623">贴墙电话桌</text>
</g>
<g id="cell-r5c7" class="cell" data-row="5" data-col="7" data-region="蓝呢起居室" data-tile="floor">
  <rect class="cell-base" x="768" y="512" width="128" height="128" fill="#cfe1e2"/>
  <rect x="768" y="512" width="128" height="128" fill="#e8f1f1" opacity="0.28"/>
  <rect class="cell-grid" x="768" y="512" width="128" height="128"/>
  <text class="tile-symbol" x="780" y="537">F</text>
  <text class="cell-region" x="780" y="603">蓝呢起居室</text>
  <text class="cell-element" x="780" y="623">旧蓝绿织毯</text>
</g>
<g id="cell-r5c8" class="cell" data-row="5" data-col="8" data-region="蓝呢起居室" data-tile="floor">
  <rect class="cell-base" x="896" y="512" width="128" height="128" fill="#cfe1e2"/>
  <rect x="896" y="512" width="128" height="128" fill="#e8f1f1" opacity="0.28"/>
  <rect class="cell-grid" x="896" y="512" width="128" height="128"/>
  <text class="tile-symbol" x="908" y="537">F</text>
  <text class="cell-region" x="908" y="603">蓝呢起居室</text>
  <text class="cell-element" x="908" y="623">旧蓝绿织毯</text>
</g>
<g id="cell-r5c9" class="cell" data-row="5" data-col="9" data-region="蓝呢起居室" data-tile="floor">
  <rect class="cell-base" x="1024" y="512" width="128" height="128" fill="#cfe1e2"/>
  <rect x="1024" y="512" width="128" height="128" fill="#e8f1f1" opacity="0.28"/>
  <rect class="cell-grid" x="1024" y="512" width="128" height="128"/>
  <text class="tile-symbol" x="1036" y="537">F</text>
  <text class="cell-region" x="1036" y="603">蓝呢起居室</text>
  <text class="cell-element" x="1036" y="623">旧蓝绿织毯</text>
</g>
<g id="cell-r6c1" class="cell" data-row="6" data-col="1" data-region="中央走廊" data-tile="floor">
  <rect class="cell-base" x="0" y="640" width="128" height="128" fill="#cfe1e2"/>
  <rect x="0" y="640" width="128" height="128" fill="#e8f1f1" opacity="0.28"/>
  <rect class="cell-grid" x="0" y="640" width="128" height="128"/>
  <text class="tile-symbol" x="12" y="665">F</text>
  <text class="cell-region" x="12" y="731">中央走廊</text>
  <text class="cell-element" x="12" y="751">暖色拼花橡木地板</text>
</g>
<g id="cell-r6c2" class="cell" data-row="6" data-col="2" data-region="中央走廊" data-tile="floor">
  <rect class="cell-base" x="128" y="640" width="128" height="128" fill="#cfe1e2"/>
  <rect x="128" y="640" width="128" height="128" fill="#e8f1f1" opacity="0.28"/>
  <rect class="cell-grid" x="128" y="640" width="128" height="128"/>
  <text class="tile-symbol" x="140" y="665">F</text>
  <text class="cell-region" x="140" y="731">中央走廊</text>
  <text class="cell-element" x="140" y="751">暖色拼花橡木地板</text>
</g>
<g id="cell-r6c3" class="cell" data-row="6" data-col="3" data-region="中央走廊" data-tile="floor">
  <rect class="cell-base" x="256" y="640" width="128" height="128" fill="#cfe1e2"/>
  <rect x="256" y="640" width="128" height="128" fill="#e8f1f1" opacity="0.28"/>
  <rect class="cell-grid" x="256" y="640" width="128" height="128"/>
  <text class="tile-symbol" x="268" y="665">F</text>
  <text class="cell-region" x="268" y="731">中央走廊</text>
  <text class="cell-element" x="268" y="751">暖色拼花橡木地板</text>
</g>
<g id="cell-r6c4" class="cell" data-row="6" data-col="4" data-region="中央走廊" data-tile="floor">
  <rect class="cell-base" x="384" y="640" width="128" height="128" fill="#cfe1e2"/>
  <rect x="384" y="640" width="128" height="128" fill="#e8f1f1" opacity="0.28"/>
  <rect class="cell-grid" x="384" y="640" width="128" height="128"/>
  <text class="tile-symbol" x="396" y="665">F</text>
  <text class="cell-region" x="396" y="731">中央走廊</text>
  <text class="cell-element" x="396" y="751">暖色拼花橡木地板</text>
</g>
<g id="cell-r6c5" class="cell" data-row="6" data-col="5" data-region="中央走廊" data-tile="floor">
  <rect class="cell-base" x="512" y="640" width="128" height="128" fill="#cfe1e2"/>
  <rect x="512" y="640" width="128" height="128" fill="#e8f1f1" opacity="0.28"/>
  <rect class="cell-grid" x="512" y="640" width="128" height="128"/>
  <text class="tile-symbol" x="524" y="665">F</text>
  <text class="cell-region" x="524" y="731">中央走廊</text>
  <text class="cell-element" x="524" y="751">暖色拼花橡木地板</text>
</g>
<g id="cell-r6c6" class="cell" data-row="6" data-col="6" data-region="中央走廊" data-tile="floor">
  <rect class="cell-base" x="640" y="640" width="128" height="128" fill="#cfe1e2"/>
  <rect x="640" y="640" width="128" height="128" fill="#e8f1f1" opacity="0.28"/>
  <rect class="cell-grid" x="640" y="640" width="128" height="128"/>
  <text class="tile-symbol" x="652" y="665">F</text>
  <text class="cell-region" x="652" y="731">中央走廊</text>
  <text class="cell-element" x="652" y="751">暖色拼花橡木地板</text>
</g>
<g id="cell-r6c7" class="cell" data-row="6" data-col="7" data-region="中央走廊" data-tile="floor">
  <rect class="cell-base" x="768" y="640" width="128" height="128" fill="#cfe1e2"/>
  <rect x="768" y="640" width="128" height="128" fill="#e8f1f1" opacity="0.28"/>
  <rect class="cell-grid" x="768" y="640" width="128" height="128"/>
  <text class="tile-symbol" x="780" y="665">F</text>
  <text class="cell-region" x="780" y="731">中央走廊</text>
  <text class="cell-element" x="780" y="751">暖色拼花橡木地板</text>
</g>
<g id="cell-r6c8" class="cell" data-row="6" data-col="8" data-region="中央走廊" data-tile="floor">
  <rect class="cell-base" x="896" y="640" width="128" height="128" fill="#cfe1e2"/>
  <rect x="896" y="640" width="128" height="128" fill="#e8f1f1" opacity="0.28"/>
  <rect class="cell-grid" x="896" y="640" width="128" height="128"/>
  <text class="tile-symbol" x="908" y="665">F</text>
  <text class="cell-region" x="908" y="731">中央走廊</text>
  <text class="cell-element" x="908" y="751">暖色拼花橡木地板</text>
</g>
<g id="cell-r6c9" class="cell" data-row="6" data-col="9" data-region="中央走廊" data-tile="floor">
  <rect class="cell-base" x="1024" y="640" width="128" height="128" fill="#cfe1e2"/>
  <rect x="1024" y="640" width="128" height="128" fill="#e8f1f1" opacity="0.28"/>
  <rect class="cell-grid" x="1024" y="640" width="128" height="128"/>
  <text class="tile-symbol" x="1036" y="665">F</text>
  <text class="cell-region" x="1036" y="731">中央走廊</text>
  <text class="cell-element" x="1036" y="751">暖色拼花橡木地板</text>
</g>
<g id="cell-r7c1" class="cell" data-row="7" data-col="1" data-region="家族餐室" data-tile="chair">
  <rect class="cell-base" x="0" y="768" width="128" height="128" fill="#d8dce2"/>
  <rect x="0" y="768" width="128" height="128" fill="#eef1f4" opacity="0.28"/>
  <rect class="cell-grid" x="0" y="768" width="128" height="128"/>
  <text class="tile-symbol" x="12" y="793">C</text>
  <text class="cell-region" x="12" y="859">家族餐室</text>
  <text class="cell-element" x="12" y="879">餐室端椅</text>
</g>
<g id="cell-r7c2" class="cell" data-row="7" data-col="2" data-region="家族餐室" data-tile="floor">
  <rect class="cell-base" x="128" y="768" width="128" height="128" fill="#cfe1e2"/>
  <rect x="128" y="768" width="128" height="128" fill="#e8f1f1" opacity="0.28"/>
  <rect class="cell-grid" x="128" y="768" width="128" height="128"/>
  <text class="tile-symbol" x="140" y="793">F</text>
  <text class="cell-region" x="140" y="859">家族餐室</text>
  <text class="cell-element" x="140" y="879">暖色拼花橡木地板</text>
</g>
<g id="cell-r7c3" class="cell" data-row="7" data-col="3" data-region="家族餐室" data-tile="floor">
  <rect class="cell-base" x="256" y="768" width="128" height="128" fill="#cfe1e2"/>
  <rect x="256" y="768" width="128" height="128" fill="#e8f1f1" opacity="0.28"/>
  <rect class="cell-grid" x="256" y="768" width="128" height="128"/>
  <text class="tile-symbol" x="268" y="793">F</text>
  <text class="cell-region" x="268" y="859">家族餐室</text>
  <text class="cell-element" x="268" y="879">暖色拼花橡木地板</text>
</g>
<g id="cell-r7c4" class="cell dark" data-row="7" data-col="4" data-region="备餐厨房" data-tile="bookshelf">
  <rect class="cell-base" x="384" y="768" width="128" height="128" fill="#252b29"/>
  <rect x="384" y="768" width="128" height="128" fill="#3b3430" opacity="0.28"/>
  <rect x="384" y="768" width="128" height="128" fill="url(#blocker-dots)"/>
  <rect class="cell-grid" x="384" y="768" width="128" height="128"/>
  <text class="tile-symbol" x="396" y="793">X</text>
  <text class="cell-region" x="396" y="859">备餐厨房</text>
  <text class="cell-element" x="396" y="879">沿北墙的备餐柜</text>
</g>
<g id="cell-r7c5" class="cell" data-row="7" data-col="5" data-region="备餐厨房" data-tile="floor">
  <rect class="cell-base" x="512" y="768" width="128" height="128" fill="#cfe1e2"/>
  <rect x="512" y="768" width="128" height="128" fill="#e8f1f1" opacity="0.28"/>
  <rect class="cell-grid" x="512" y="768" width="128" height="128"/>
  <text class="tile-symbol" x="524" y="793">F</text>
  <text class="cell-region" x="524" y="859">备餐厨房</text>
  <text class="cell-element" x="524" y="879">赤陶防滑砖</text>
</g>
<g id="cell-r7c6" class="cell" data-row="7" data-col="6" data-region="备餐厨房" data-tile="floor">
  <rect class="cell-base" x="640" y="768" width="128" height="128" fill="#cfe1e2"/>
  <rect x="640" y="768" width="128" height="128" fill="#e8f1f1" opacity="0.28"/>
  <rect class="cell-grid" x="640" y="768" width="128" height="128"/>
  <text class="tile-symbol" x="652" y="793">F</text>
  <text class="cell-region" x="652" y="859">备餐厨房</text>
  <text class="cell-element" x="652" y="879">赤陶防滑砖</text>
</g>
<g id="cell-r7c7" class="cell" data-row="7" data-col="7" data-region="玻璃冬园" data-tile="floor">
  <rect class="cell-base" x="768" y="768" width="128" height="128" fill="#cfe1e2"/>
  <rect x="768" y="768" width="128" height="128" fill="#e8f1f1" opacity="0.28"/>
  <rect class="cell-grid" x="768" y="768" width="128" height="128"/>
  <text class="tile-symbol" x="780" y="793">F</text>
  <text class="cell-region" x="780" y="859">玻璃冬园</text>
  <text class="cell-element" x="780" y="879">带苔缝的冬园石板</text>
</g>
<g id="cell-r7c8" class="cell" data-row="7" data-col="8" data-region="玻璃冬园" data-tile="floor">
  <rect class="cell-base" x="896" y="768" width="128" height="128" fill="#cfe1e2"/>
  <rect x="896" y="768" width="128" height="128" fill="#e8f1f1" opacity="0.28"/>
  <rect class="cell-grid" x="896" y="768" width="128" height="128"/>
  <text class="tile-symbol" x="908" y="793">F</text>
  <text class="cell-region" x="908" y="859">玻璃冬园</text>
  <text class="cell-element" x="908" y="879">带苔缝的冬园石板</text>
</g>
<g id="cell-r7c9" class="cell dark" data-row="7" data-col="9" data-region="玻璃冬园" data-tile="shrub">
  <rect class="cell-base" x="1024" y="768" width="128" height="128" fill="#20342b"/>
  <rect x="1024" y="768" width="128" height="128" fill="#36533f" opacity="0.28"/>
  <rect x="1024" y="768" width="128" height="128" fill="url(#blocker-dots)"/>
  <rect class="cell-grid" x="1024" y="768" width="128" height="128"/>
  <text class="tile-symbol" x="1036" y="793">X</text>
  <text class="cell-region" x="1036" y="859">玻璃冬园</text>
  <text class="cell-element" x="1036" y="879">贴玻璃墙的高叶盆栽</text>
</g>
<g id="cell-r8c1" class="cell" data-row="8" data-col="1" data-region="家族餐室" data-tile="floor">
  <rect class="cell-base" x="0" y="896" width="128" height="128" fill="#cfe1e2"/>
  <rect x="0" y="896" width="128" height="128" fill="#e8f1f1" opacity="0.28"/>
  <rect class="cell-grid" x="0" y="896" width="128" height="128"/>
  <text class="tile-symbol" x="12" y="921">F</text>
  <text class="cell-region" x="12" y="987">家族餐室</text>
  <text class="cell-element" x="12" y="1007">暖色拼花橡木地板</text>
</g>
<g id="cell-r8c2" class="cell dark" data-row="8" data-col="2" data-region="家族餐室" data-tile="table">
  <rect class="cell-base" x="128" y="896" width="128" height="128" fill="#2f2924"/>
  <rect x="128" y="896" width="128" height="128" fill="#51453a" opacity="0.28"/>
  <rect x="128" y="896" width="128" height="128" fill="url(#blocker-dots)"/>
  <rect class="cell-grid" x="128" y="896" width="128" height="128"/>
  <text class="tile-symbol" x="140" y="921">X</text>
  <text class="cell-region" x="140" y="987">家族餐室</text>
  <text class="cell-element" x="140" y="1007">六人餐桌</text>
</g>
<g id="cell-r8c3" class="cell" data-row="8" data-col="3" data-region="家族餐室" data-tile="chair">
  <rect class="cell-base" x="256" y="896" width="128" height="128" fill="#d8dce2"/>
  <rect x="256" y="896" width="128" height="128" fill="#eef1f4" opacity="0.28"/>
  <rect class="cell-grid" x="256" y="896" width="128" height="128"/>
  <text class="tile-symbol" x="268" y="921">C</text>
  <text class="cell-region" x="268" y="987">家族餐室</text>
  <text class="cell-element" x="268" y="1007">餐桌侧椅</text>
</g>
<g id="cell-r8c4" class="cell dark" data-row="8" data-col="4" data-region="备餐厨房" data-tile="bookshelf">
  <rect class="cell-base" x="384" y="896" width="128" height="128" fill="#252b29"/>
  <rect x="384" y="896" width="128" height="128" fill="#3b3430" opacity="0.28"/>
  <rect x="384" y="896" width="128" height="128" fill="url(#blocker-dots)"/>
  <rect class="cell-grid" x="384" y="896" width="128" height="128"/>
  <text class="tile-symbol" x="396" y="921">X</text>
  <text class="cell-region" x="396" y="987">备餐厨房</text>
  <text class="cell-element" x="396" y="1007">沿西墙的料理台</text>
</g>
<g id="cell-r8c5" class="cell" data-row="8" data-col="5" data-region="备餐厨房" data-tile="floor">
  <rect class="cell-base" x="512" y="896" width="128" height="128" fill="#cfe1e2"/>
  <rect x="512" y="896" width="128" height="128" fill="#e8f1f1" opacity="0.28"/>
  <rect class="cell-grid" x="512" y="896" width="128" height="128"/>
  <text class="tile-symbol" x="524" y="921">F</text>
  <text class="cell-region" x="524" y="987">备餐厨房</text>
  <text class="cell-element" x="524" y="1007">赤陶防滑砖</text>
</g>
<g id="cell-r8c6" class="cell" data-row="8" data-col="6" data-region="备餐厨房" data-tile="floor">
  <rect class="cell-base" x="640" y="896" width="128" height="128" fill="#cfe1e2"/>
  <rect x="640" y="896" width="128" height="128" fill="#e8f1f1" opacity="0.28"/>
  <rect class="cell-grid" x="640" y="896" width="128" height="128"/>
  <text class="tile-symbol" x="652" y="921">F</text>
  <text class="cell-region" x="652" y="987">备餐厨房</text>
  <text class="cell-element" x="652" y="1007">赤陶防滑砖</text>
</g>
<g id="cell-r8c7" class="cell" data-row="8" data-col="7" data-region="玻璃冬园" data-tile="floor">
  <rect class="cell-base" x="768" y="896" width="128" height="128" fill="#cfe1e2"/>
  <rect x="768" y="896" width="128" height="128" fill="#e8f1f1" opacity="0.28"/>
  <rect class="cell-grid" x="768" y="896" width="128" height="128"/>
  <text class="tile-symbol" x="780" y="921">F</text>
  <text class="cell-region" x="780" y="987">玻璃冬园</text>
  <text class="cell-element" x="780" y="1007">带苔缝的冬园石板</text>
</g>
<g id="cell-r8c8" class="cell dark" data-row="8" data-col="8" data-region="玻璃冬园" data-tile="table">
  <rect class="cell-base" x="896" y="896" width="128" height="128" fill="#2f2924"/>
  <rect x="896" y="896" width="128" height="128" fill="#51453a" opacity="0.28"/>
  <rect x="896" y="896" width="128" height="128" fill="url(#blocker-dots)"/>
  <rect class="cell-grid" x="896" y="896" width="128" height="128"/>
  <text class="tile-symbol" x="908" y="921">X</text>
  <text class="cell-region" x="908" y="987">玻璃冬园</text>
  <text class="cell-element" x="908" y="1007">冬园圆桌</text>
</g>
<g id="cell-r8c9" class="cell" data-row="8" data-col="9" data-region="玻璃冬园" data-tile="floor">
  <rect class="cell-base" x="1024" y="896" width="128" height="128" fill="#cfe1e2"/>
  <rect x="1024" y="896" width="128" height="128" fill="#e8f1f1" opacity="0.28"/>
  <rect class="cell-grid" x="1024" y="896" width="128" height="128"/>
  <text class="tile-symbol" x="1036" y="921">F</text>
  <text class="cell-region" x="1036" y="987">玻璃冬园</text>
  <text class="cell-element" x="1036" y="1007">带苔缝的冬园石板</text>
</g>
<g id="cell-r9c1" class="cell" data-row="9" data-col="1" data-region="家族餐室" data-tile="floor">
  <rect class="cell-base" x="0" y="1024" width="128" height="128" fill="#cfe1e2"/>
  <rect x="0" y="1024" width="128" height="128" fill="#e8f1f1" opacity="0.28"/>
  <rect class="cell-grid" x="0" y="1024" width="128" height="128"/>
  <text class="tile-symbol" x="12" y="1049">F</text>
  <text class="cell-region" x="12" y="1115">家族餐室</text>
  <text class="cell-element" x="12" y="1135">暖色拼花橡木地板</text>
</g>
<g id="cell-r9c2" class="cell" data-row="9" data-col="2" data-region="家族餐室" data-tile="floor">
  <rect class="cell-base" x="128" y="1024" width="128" height="128" fill="#cfe1e2"/>
  <rect x="128" y="1024" width="128" height="128" fill="#e8f1f1" opacity="0.28"/>
  <rect class="cell-grid" x="128" y="1024" width="128" height="128"/>
  <text class="tile-symbol" x="140" y="1049">F</text>
  <text class="cell-region" x="140" y="1115">家族餐室</text>
  <text class="cell-element" x="140" y="1135">暖色拼花橡木地板</text>
</g>
<g id="cell-r9c3" class="cell" data-row="9" data-col="3" data-region="家族餐室" data-tile="floor">
  <rect class="cell-base" x="256" y="1024" width="128" height="128" fill="#cfe1e2"/>
  <rect x="256" y="1024" width="128" height="128" fill="#e8f1f1" opacity="0.28"/>
  <rect class="cell-grid" x="256" y="1024" width="128" height="128"/>
  <text class="tile-symbol" x="268" y="1049">F</text>
  <text class="cell-region" x="268" y="1115">家族餐室</text>
  <text class="cell-element" x="268" y="1135">暖色拼花橡木地板</text>
</g>
<g id="cell-r9c4" class="cell" data-row="9" data-col="4" data-region="备餐厨房" data-tile="floor">
  <rect class="cell-base" x="384" y="1024" width="128" height="128" fill="#cfe1e2"/>
  <rect x="384" y="1024" width="128" height="128" fill="#e8f1f1" opacity="0.28"/>
  <rect class="cell-grid" x="384" y="1024" width="128" height="128"/>
  <text class="tile-symbol" x="396" y="1049">F</text>
  <text class="cell-region" x="396" y="1115">备餐厨房</text>
  <text class="cell-element" x="396" y="1135">赤陶防滑砖</text>
</g>
<g id="cell-r9c5" class="cell" data-row="9" data-col="5" data-region="备餐厨房" data-tile="floor">
  <rect class="cell-base" x="512" y="1024" width="128" height="128" fill="#cfe1e2"/>
  <rect x="512" y="1024" width="128" height="128" fill="#e8f1f1" opacity="0.28"/>
  <rect class="cell-grid" x="512" y="1024" width="128" height="128"/>
  <text class="tile-symbol" x="524" y="1049">F</text>
  <text class="cell-region" x="524" y="1115">备餐厨房</text>
  <text class="cell-element" x="524" y="1135">赤陶防滑砖</text>
</g>
<g id="cell-r9c6" class="cell" data-row="9" data-col="6" data-region="备餐厨房" data-tile="floor">
  <rect class="cell-base" x="640" y="1024" width="128" height="128" fill="#cfe1e2"/>
  <rect x="640" y="1024" width="128" height="128" fill="#e8f1f1" opacity="0.28"/>
  <rect class="cell-grid" x="640" y="1024" width="128" height="128"/>
  <text class="tile-symbol" x="652" y="1049">F</text>
  <text class="cell-region" x="652" y="1115">备餐厨房</text>
  <text class="cell-element" x="652" y="1135">赤陶防滑砖</text>
</g>
<g id="cell-r9c7" class="cell dark" data-row="9" data-col="7" data-region="玻璃冬园" data-tile="shrub">
  <rect class="cell-base" x="768" y="1024" width="128" height="128" fill="#20342b"/>
  <rect x="768" y="1024" width="128" height="128" fill="#36533f" opacity="0.28"/>
  <rect x="768" y="1024" width="128" height="128" fill="url(#blocker-dots)"/>
  <rect class="cell-grid" x="768" y="1024" width="128" height="128"/>
  <text class="tile-symbol" x="780" y="1049">X</text>
  <text class="cell-region" x="780" y="1115">玻璃冬园</text>
  <text class="cell-element" x="780" y="1135">角落蕨类盆栽</text>
</g>
<g id="cell-r9c8" class="cell" data-row="9" data-col="8" data-region="玻璃冬园" data-tile="floor">
  <rect class="cell-base" x="896" y="1024" width="128" height="128" fill="#cfe1e2"/>
  <rect x="896" y="1024" width="128" height="128" fill="#e8f1f1" opacity="0.28"/>
  <rect class="cell-grid" x="896" y="1024" width="128" height="128"/>
  <text class="tile-symbol" x="908" y="1049">F</text>
  <text class="cell-region" x="908" y="1115">玻璃冬园</text>
  <text class="cell-element" x="908" y="1135">带苔缝的冬园石板</text>
</g>
<g id="cell-r9c9" class="cell" data-row="9" data-col="9" data-region="玻璃冬园" data-tile="floor">
  <rect class="cell-base" x="1024" y="1024" width="128" height="128" fill="#cfe1e2"/>
  <rect x="1024" y="1024" width="128" height="128" fill="#e8f1f1" opacity="0.28"/>
  <rect class="cell-grid" x="1024" y="1024" width="128" height="128"/>
  <text class="tile-symbol" x="1036" y="1049">F</text>
  <text class="cell-region" x="1036" y="1115">玻璃冬园</text>
  <text class="cell-element" x="1036" y="1135">带苔缝的冬园石板</text>
</g>
<path class="region-boundary" d="M 384 0 L 384 640"/>
<path class="region-boundary" d="M 384 768 L 384 1152"/>
<path class="region-boundary" d="M 768 0 L 768 640"/>
<path class="region-boundary" d="M 768 768 L 768 1152"/>
<path class="region-boundary" d="M 384 384 L 768 384"/>
<path class="region-boundary" d="M 0 640 L 384 640"/>
<path class="region-boundary" d="M 768 640 L 1152 640"/>
<path class="region-boundary" d="M 0 768 L 1152 768"/>
<path class="region-boundary" d="M 0 0 L 1152 0 L 1152 1152 L 0 1152 Z"/>
<rect x="1" y="1" width="1150" height="1150" fill="none" class="outer-border"/>
</svg>
